<svg xmlns="http://www.w3.org/2000/svg" xmlns:xlink="http://www.w3.org/1999/xlink" version="1.1" x="0px" y="0px" viewBox="0 0 100 58.427499999999995" enable-background="new 0 0 100 46.742" xml:space="preserve"><path d="M99.922,17.594C98.75,11.344,84.634,8.459,65.7,9.774c-2.592-4.324-7.961-7.146-14.227-7.514  c-1.188-1.717-3.762-2.632-6.5-2.119s-4.806,2.298-5.292,4.33c-5.707,2.613-9.689,7.188-10.539,12.157  C11.019,22.262-1.094,30.063,0.078,36.314c1.202,6.408,16.011,9.277,35.668,7.711c1.925,1.294,4.643,2.171,7.826,2.531  c-0.885-0.904-1.729-1.926-2.521-3.051c0.858-0.099,1.724-0.205,2.596-0.32c0.762,1.323,1.571,2.515,2.413,3.545  c2.363,0.065,4.911-0.131,7.531-0.622c7.335-1.375,13.294-4.696,15.877-8.406C88.358,32.042,101.123,24.001,99.922,17.594z   M50.539,29.831c-13.173,2.471-24.318,1.983-24.894-1.085c-0.223-1.187,1.173-2.587,3.724-3.999c0.11,0.652,0.354,1.271,0.899,1.856  c1.538,0.324,3.147,0.509,4.787,0.589c-0.203-1.647-0.294-3.264-0.288-4.833c0.957-0.351,1.972-0.694,3.041-1.027  c0.06,1.892,0.235,3.864,0.541,5.883c3.97-0.114,7.965-0.711,11.446-1.364c5.907-1.107,13.24-2.461,18.553-5.939  c0.339-0.851,0.283-1.669,0.069-2.49c2.897,0.392,4.711,1.191,4.934,2.38C73.925,22.87,63.713,27.361,50.539,29.831z"/><text x="0" y="61.742" fill="#000000" font-size="5px" font-weight="bold" font-family="'Helvetica Neue', Helvetica, Arial-Unicode, Arial, Sans-serif">Created by Heather Walls</text><text x="0" y="66.74199999999999" fill="#000000" font-size="5px" font-weight="bold" font-family="'Helvetica Neue', Helvetica, Arial-Unicode, Arial, Sans-serif">from the Noun Project</text></svg>